<svg xmlns="http://www.w3.org/2000/svg" width='146' height='146' viewBox="0 0 146 146" fill="none">
    <path 
        d="M121.016 5.89988C114.4 1.92994 107.346 0 99.4514 0C90.0064 0 80.7352 2.78113 71.7693 5.47072C63.0104 8.09815 54.7372 10.5799 46.5484 10.5804C46.5472 10.5804 46.5464 10.5804 46.5452 10.5804C41.0705 10.5804 36.1133 9.42156 31.4622 7.04963V4.27734C31.4622 1.91511 29.547 0 27.1848 0C24.8226 0 22.9075 1.91511 22.9075 4.27734V9.56728V67.7095V141.723C22.9075 144.085 24.8226 146 27.1848 146C29.547 146 31.4622 144.085 31.4622 141.723V74.555C36.1863 76.38 41.1723 77.2773 46.5486 77.2773C55.9933 77.2773 65.2637 74.4962 74.229 71.8066C82.9885 69.1789 91.2623 66.6969 99.4514 66.6969C105.751 66.6969 111.365 68.2279 116.614 71.3777C117.936 72.1705 119.581 72.1916 120.923 71.4322C122.264 70.6728 123.092 69.2511 123.092 67.7101V9.56756C123.093 8.06507 122.304 6.67266 121.016 5.89988ZM71.7713 63.6129C63.0116 66.2407 54.7378 68.7227 46.5489 68.7227C41.0722 68.7227 36.1139 67.5655 31.4624 65.1936V16.4153C36.1858 18.24 41.1709 19.1354 46.5455 19.1351C46.5464 19.1351 46.5484 19.1351 46.5495 19.1351C55.9933 19.1346 65.2631 16.3537 74.2276 13.6644C82.9873 11.0367 91.262 8.55469 99.4514 8.55469C104.928 8.55469 109.886 9.71185 114.538 12.0835V60.8623C109.814 59.0373 104.827 58.1422 99.4514 58.1422C90.007 58.1422 80.7363 60.9233 71.7713 63.6129Z" 
        fill="#0b07a2" 
    />
    <g clipPath="url(#clip0)">
        <path 
            d="M65.1749 110.097C65.3211 109.466 66.1698 107.144 67.6975 103.193C68.1081 102.134 68.9174 101.329 69.9176 100.921V99.3381C69.9566 98.2133 71.5778 98.2142 71.6164 99.3381V100.626C72.04 100.643 72.4564 100.728 72.8558 100.877C73.862 101.253 74.6617 101.998 75.1075 102.976C75.5533 103.954 75.592 105.046 75.2162 106.053L75.1813 106.146H75.7257V91.3237C75.693 89.5346 73.479 88.648 72.2168 89.9205C71.8296 90.306 71.6164 90.8199 71.6164 91.3674V95.2501C71.5775 96.3749 69.9562 96.374 69.9176 95.2501V91.3674C69.9176 90.3647 70.3085 89.4232 71.0175 88.7172C72.3193 87.3622 74.6221 87.2658 76.0313 88.4561C77.0601 85.9945 80.4359 85.3989 82.2369 87.3964C81.3788 80.1838 88.2481 75.646 93.9994 79.2811C96.3474 77.7396 100.086 77.4091 102.644 79.4471C103.018 79.7307 103.091 80.2636 102.807 80.6374C102.523 81.0112 101.991 81.084 101.617 80.8005C99.4294 79.0559 96.2599 79.6411 94.4968 80.9921C94.1999 81.2067 93.7989 81.2067 93.5022 80.9921C85.0589 75.3806 76.9748 89.61 93.3856 97.7925C93.761 97.99 94.2352 97.9915 94.6162 97.791C103.621 92.9787 105.054 87.7301 103.665 83.6014C103.499 83.1625 103.721 82.6723 104.159 82.5065C104.598 82.3408 105.088 82.5621 105.254 83.001C105.775 84.3896 105.947 85.8756 105.762 87.3963C107.564 85.3979 110.94 85.9957 111.968 88.456C113.377 87.2658 115.68 87.3623 116.981 88.7164C117.691 89.4231 118.081 90.3646 118.081 91.3673V100.932C119.066 101.338 119.89 102.13 120.301 103.193C121.83 107.147 122.679 109.471 122.824 110.098C123.491 112.994 122.116 118.872 120.241 121.131C118.647 123.052 116.444 124.182 114.283 124.64V127.027C114.244 128.152 112.623 128.151 112.584 127.027V124.866C111.753 124.912 110.857 124.848 110.099 124.675H100.996C100.167 124.675 99.3676 124.546 98.6168 124.307V134.301H112.584V130.925C112.623 129.8 114.244 129.801 114.283 130.925V135.15C114.283 135.62 113.902 136 113.433 136H97.7675C97.2983 136 96.9181 135.62 96.9181 135.15V123.532C95.6788 122.776 94.6647 121.687 94.0021 120.391C93.3514 121.671 92.3497 122.765 91.0811 123.534V135.15C91.0811 135.62 90.7007 136 90.2317 136H74.5657C74.0966 136 73.7163 135.62 73.7163 135.15V124.639C71.3506 124.134 69.2086 122.88 67.7579 121.131C65.8832 118.871 64.5072 112.994 65.1749 110.097ZM79.4794 87.8875C78.3463 87.8875 77.4245 88.8071 77.4245 89.9373V91.3092C77.4248 91.3286 77.4249 91.3479 77.4249 91.3673V106.146H81.5326V92.1263C81.5326 92.0874 81.5332 92.0486 81.5344 92.0098V89.9375C81.5344 88.8071 80.6126 87.8875 79.4794 87.8875ZM83.4631 91.1796C83.3259 91.4434 83.246 91.737 83.2333 92.0409V106.146H87.3424C87.3417 98.7379 87.3416 96.5211 87.3439 95.8376C85.4629 94.2394 84.243 92.6476 83.4631 91.1796ZM100.654 95.8386C100.657 96.3348 100.657 98.2617 100.656 106.146H104.766V92.0408C104.753 91.7363 104.673 91.4428 104.536 91.1793C103.756 92.6477 102.536 94.24 100.654 95.8386ZM108.519 87.8875C107.386 87.8875 106.464 88.8071 106.464 89.9373V92.009C106.466 92.048 106.466 92.0871 106.466 92.1263V106.146H110.574V91.3674C110.574 91.348 110.574 91.3287 110.574 91.3093V89.9375C110.574 88.8071 109.652 87.8875 108.519 87.8875ZM115.781 89.9198C114.519 88.6477 112.305 89.5356 112.273 91.3236V106.146H112.817L112.783 106.053C112.407 105.046 112.445 103.953 112.891 102.976C113.337 101.998 114.137 101.253 115.143 100.877C115.551 100.725 115.969 100.644 116.383 100.628V91.3672C116.383 90.8199 116.169 90.306 115.781 89.9198ZM100.996 122.976L110.186 122.973C110.247 122.973 110.397 122.999 110.411 123.003C112.874 123.588 116.688 122.753 118.934 120.046C120.46 118.207 121.713 112.843 121.168 110.48C121.111 110.231 120.757 109.083 118.717 103.807C118.26 102.626 116.924 102.026 115.738 102.469C115.156 102.686 114.694 103.117 114.437 103.681C114.179 104.246 114.157 104.877 114.374 105.458L116.375 110.817C116.755 111.762 114.819 113.282 114.04 113.536C112.729 114.034 111.67 114.859 110.893 115.989C110.627 116.376 110.098 116.474 109.712 116.208C109.325 115.942 109.227 115.414 109.493 115.027C110.47 113.606 111.796 112.57 113.437 111.948C113.788 111.814 114.301 111.429 114.633 111.009L113.452 107.845H111.441C111.435 107.845 111.429 107.845 111.423 107.845H99.8068C99.8009 107.845 99.7951 107.845 99.7892 107.845H98.6519C97.5272 107.806 97.5281 106.184 98.6519 106.146H98.9575C98.9579 101.89 98.958 98.8035 98.9579 97.1485C97.9298 97.8733 96.7522 98.5927 95.4043 99.2956C95.2272 99.3888 95.0408 99.4639 94.8487 99.5201V116.844C94.8488 120.225 97.6064 122.976 100.996 122.976ZM89.3821 134.301V124.306C88.6157 124.549 87.8106 124.675 87.0027 124.675H77.8996C77.1277 124.851 76.2458 124.914 75.4148 124.867V134.301H89.3821ZM69.0651 120.046C70.3982 121.654 72.4474 122.762 74.6888 123.088C75.717 123.239 76.7195 123.209 77.5894 123.003C77.6057 122.998 77.7538 122.973 77.8122 122.973L87.0026 122.976C88.0038 122.976 88.9582 122.743 89.8395 122.284C91.8814 121.222 93.1498 119.138 93.1498 116.844V99.5206C92.9583 99.4646 92.7728 99.39 92.597 99.2974C91.2479 98.5938 90.0695 97.8738 89.0406 97.1485C89.0405 98.8518 89.0406 101.934 89.041 106.146H89.3466C90.4713 106.185 90.4704 107.806 89.3466 107.845H88.2081C88.2023 107.845 88.1965 107.845 88.1906 107.845H76.5754C76.5695 107.845 76.5638 107.845 76.5579 107.845H74.5467L73.3652 111.009C73.6966 111.429 74.2102 111.815 74.5621 111.948C76.0798 112.525 77.3329 113.459 78.2867 114.724C78.569 115.099 78.4942 115.632 78.1196 115.914C77.745 116.196 77.2123 116.121 76.9301 115.747C76.1722 114.741 75.1727 113.998 73.9587 113.537C73.0831 113.204 72.1209 112.354 71.6709 111.516C71.5553 111.301 71.5379 111.046 71.6235 110.817L73.6246 105.458C73.8416 104.877 73.8193 104.246 73.5617 103.681C73.3042 103.117 72.8424 102.686 72.2604 102.469C71.8579 102.317 71.4124 102.282 70.9935 102.366C70.9636 102.374 70.9331 102.38 70.902 102.385C70.1707 102.56 69.5633 103.08 69.2814 103.807C67.2429 109.078 66.8877 110.231 66.8299 110.48C66.2856 112.842 67.5388 118.206 69.0651 120.046Z" 
            fill="#0b07a2" 
        />
    </g>
    <defs>
        <clipPath id="clip0">
            <rect width='58' height='58' fill="#0b07a2" transform="matrix(-1 0 0 1 123 78)" />
        </clipPath>
    </defs>
</svg>
